<svg xmlns="http://www.w3.org/2000/svg" id="Layer_2" data-name="Layer 2" viewBox="0 0 1410.81 414.98"><defs><style>      .cls-1 {        fill: #fff;        stroke-width: 0px;      }    </style></defs><g id="Layer_1-2" data-name="Layer 1"><g><path class="cls-1" d="m647.2,55.41c-12.95,0-23.93-3.14-28.73-7.94l-13.44,11.28c5.79,6.86,23.05,11.87,42.07,11.87,27.07,0,43.54-9.51,43.54-24.52,0-10.49-8.04-16.67-22.95-18.44l-15.2-1.77c-6.86-.78-9.9-2.84-9.9-5.39,0-3.43,5.88-5.3,17.95-5.3,13.73,0,22.75,2.75,29.22,8.53l11.47-11.28c-4.51-7.36-20.3-12.45-37.76-12.45-25.79,0-43.44,10.3-43.44,24.81,0,9.71,8.83,15.49,23.05,17.06l16.18,1.77c6.57.69,8.83,2.45,8.83,5.1,0,4.51-8.14,6.67-20.89,6.67Z"></path><path class="cls-1" d="m547.07,70.61c32.36,0,57.96-18.44,57.96-41.88,0-17.85-15.1-28.73-39.91-28.73-32.36,0-57.96,18.44-57.96,41.88,0,17.85,15.1,28.73,39.91,28.73Zm14.51-55.31c12.55,0,20.1,5.98,20.1,15.89,0,13.34-13.93,24.12-31.09,24.12-12.55,0-20.1-5.98-20.1-15.89,0-13.34,13.93-24.12,31.09-24.12Z"></path><path class="cls-1" d="m836.47,70.61c32.36,0,57.96-18.44,57.96-41.88,0-17.85-15.1-28.73-39.91-28.73-32.36,0-57.96,18.44-57.96,41.88,0,17.85,15.1,28.73,39.91,28.73Zm14.51-55.31c12.55,0,20.1,5.98,20.1,15.89,0,13.34-13.93,24.12-31.09,24.12-12.55,0-20.1-5.98-20.1-15.89,0-13.34,13.93-24.12,31.09-24.12Z"></path><polygon class="cls-1" points="713.3 69.63 735.85 69.63 767.04 15.79 794.99 15.79 803.52 .98 716.24 .98 707.71 15.79 744.48 15.79 713.3 69.63"></polygon><polygon class="cls-1" points="912.48 69.63 938.66 24.52 947.78 69.63 970.34 69.63 1010.15 .98 987.6 .98 961.41 46.09 952.29 .98 929.74 .98 889.92 69.63 912.48 69.63"></polygon><path class="cls-1" d="m491.47,47.27c0-4.51-1.96-7.85-5.69-10,11.38-4.12,17.65-11.18,17.65-20.2,0-9.81-7.45-16.08-18.93-16.08h-44.23l-39.62,68.65h57.27c18.93,0,33.54-9.81,33.54-22.36Zm-37.17-31.58h21.18c3.92,0,6.37,2.06,6.37,5.3,0,4.41-4.32,7.36-10.59,7.36h-24.22l7.26-12.65Zm-22.56,39.23l7.94-13.83h22.75c4.22,0,6.47,1.86,6.47,5.39,0,5.3-4.71,8.43-12.55,8.43h-24.62Z"></path><path class="cls-1" d="m551.56,97.19v79.52l37.58,28.07-34.06,58.52h-109.78l52.06-89.6v-76.5h-113.21l-8.51,14.67v-14.67H40.24v79.52l37.58,28.07L0,338.47v76.51h113.21l46.59-80.18h86.52l-2.14,3.68v76.5h791.19l33.28-57.11v57.11h113.19l96.21-166.1h39.99c.13,0,.25,0,.36,0l3.74,76.69,88.64-151.86v-76.52h-859.25Zm851.25,74.35l-73.97,126.71-2.46-50.47c-.21-4.38-1.64-6.91-8.31-6.91h-44.6l-96.21,166.1h-100.58v-66.34l57.78-99.76h-49.63v16.55l-13.62,24.18v56.04l-40.41,69.33h-244.68v-36.49l-21.27,36.49h-244.99v-26.31l-15.16,26.31h-252.5v-66.34l35.35-60.95v-22.22l-40.41,69.33h-91.93l-46.59,80.18H8v-66.35l80.32-138-40.08-29.94v-67.51h319.39v36.41l21.12-36.41h100.6v66.35l-57.96,99.76h112.88v26.47l55.37-95.13-40.08-29.94v-67.51h843.25v66.35Zm-323.61,148.77v-36.61l13.62-24.18v-10.65h27.75l-41.38,71.44Z"></path><path class="cls-1" d="m384.37,278.29l96.51-166.1h-88.1l-132.12,227.79h239.98l35.54-61.69h-151.82Zm111.67,53.69h-221.47l122.84-211.79h69.59l-96.52,166.1h151.88l-26.32,45.69Z"></path><path class="cls-1" d="m298.94,187.44l1.31,26.92,59.64-102.17H59.26l62.59,46.75L16.48,339.98h88.1l46.59-80.18h91.94l35.95-61.69h-92.2l14.22-24.24h82.55c9.58,0,14.87,4.69,15.31,13.57Zm-102.43-21.57l-23.6,40.24h92.25l-26.62,45.69h-91.95l-46.59,80.18H30.4l101.96-175.18-49.01-36.61h262.62l-39.03,66.86c-.61-12.4-8.77-21.18-23.3-21.18h-87.14Z"></path><path class="cls-1" d="m527.8,339.98h233.02l35.95-61.69h-145.27l14.03-24.24h112.23l32.63-55.94h-112.21l14.22-24.24h178.16l-96.82,166.1h233.03l35.95-61.69h-145.27l14.03-24.24h112.23l32.63-55.94h-112.21l14.22-24.24h203.01l-96.21,166.1h88.08l96.21-166.1h48.64c9.58,0,14.87,4.69,15.31,13.57l1.31,26.92,59.64-102.17h-823.75l62.59,46.75-105.37,181.04Zm66.87-219.79h785.73l-39.03,66.86c-.6-12.4-8.77-21.18-23.3-21.18h-53.25l-96.21,166.1h-69.59l96.21-166.1h-221.47l-23.6,40.24h112.25l-23.3,39.94h-112.25l-23.3,40.24h145.23l-26.62,45.69h-214.51l96.82-166.1h-196.66l-23.6,40.24h112.25l-23.3,39.94h-112.25l-23.3,40.24h145.23l-26.62,45.69h-214.51l101.96-175.18-49.01-36.61Z"></path></g></g></svg>