<svg xmlns="http://www.w3.org/2000/svg" id="Layer_2" data-name="Layer 2" viewBox="0 0 1104.73 336.08"><defs><style>      .cls-1 {        fill: #fff;        stroke-width: 0px;      }    </style></defs><g id="Layer_1-2" data-name="Layer 1"><g><path class="cls-1" d="m780.63,42.74l8.5-18.05,8.5,18.05h-16.99Zm-21.33,20.62h19.03l-4.07-7.17,2.74-5.84h24.25l2.74,5.84-3.98,7.17h25.4l-5.84-7.17L792.31,0l-27.25,56.19-5.75,7.17Zm-45.93-49.29l7.17-3.98h11.86v46.1l-3.98,7.17h22.83l-4.07-7.17V10.09h11.86l7.17,3.98V1.42h-52.83v12.65Zm-51.32,18.32c0-14.34,6.02-22.92,15.49-22.92s15.4,8.58,15.4,22.92-6.11,22.83-15.4,22.83-15.49-8.58-15.49-22.83Zm-15.93,0c0,17.61,13.89,31.77,31.41,31.77s31.33-14.16,31.33-31.77S694.88.44,677.54.44s-31.41,14.16-31.41,31.94Zm-57.7,25.49c5.22,3.54,13.19,6.28,22.92,6.28,19.47,0,25.31-9.29,25.31-18.58s-5.31-15.49-15.57-20l-9.65-4.25c-4.69-2.04-6.28-3.45-6.28-6.11,0-3.63,3.63-5.75,9.2-5.75,6.11,0,8.67.71,14.25,4.42l4.16,6.37,2.21-14.6c-5.22-3.54-12.3-5.22-20.35-5.22-17.17,0-24.51,7.96-24.51,18.05,0,8.5,5.84,13.19,14.78,17.26l7.96,3.63c5.93,2.65,8.85,4.96,8.85,8.94s-2.65,6.81-10.09,6.81c-6.9,0-11.24-1.77-16.81-5.49l-4.16-6.37-2.21,14.6Zm-57.08,5.49h47.52v-12.65l-7.17,3.98h-21.59v-18.94h11.86l7.17,3.98v-16.64l-7.17,3.98h-11.86V10.09h20.71l7.17,3.98V1.42h-46.63l3.98,7.17v47.61l-3.98,7.17Zm-66.19,0h16.9l-4.07-7.17V23.18l39.47,41.59h.09V8.58l4.07-7.17h-16.9l3.98,7.17v25.31L477.99,1.42h-12.83l3.98,7.17v47.61l-3.98,7.17Zm-66.19,0h16.9l-4.07-7.17V23.18l39.47,41.59h.09V8.58l4.07-7.17h-16.9l3.98,7.17v25.31L411.8,1.42h-12.83l3.98,7.17v47.61l-3.98,7.17Zm-32.56,0h22.83l-4.07-7.17V8.58l4.07-7.17h-22.83l3.98,7.17v47.61l-3.98,7.17Zm-82.12,0h16.9l-4.07-7.17V22.74l20.35,32.92,20.35-32.92v33.45l-3.98,7.17h22.83l-4.07-7.17V8.58l4.07-7.17h-16.19l-20.44,33.18L300.92,1.42h-16.64l3.98,7.17v47.61l-3.98,7.17Z"></path><path class="cls-1" d="m967.3,312.56h99.05l-28.17-33.43-30.95-152.91h19.5l78,69.03-40.86-99.98h-169.01l-18.88,99.98,61.91-69.03h17.33l30.95,152.91-18.88,33.43Zm-313.25,23.52l48.29-34.36c22.29,9.29,44.57,13.62,69.34,13.62,72.74,0,93.17-32.19,93.17-65s-18.88-54.48-55.1-69.65l-37.76-15.79c-17.02-7.12-22.91-12.07-22.91-21.36,0-12.69,12.69-20.12,35.6-20.12,18.88,0,30.95,4.02,45.19,14.86l19.81,45.81,11.14-71.19c-18.26-13.93-46.43-21.05-74.91-21.05-63.45,0-89.46,27.86-89.46,63.15,0,29.72,20.12,46.74,52,60.36l32.81,13.93c21.05,8.98,30.95,16.41,30.95,30.33s-9.29,24.14-37.76,24.14c-21.98,0-41.48-6.81-50.76-16.1l-13-35.91-56.65,104.31Zm-89.46-52.31c-33.12,0-54.48-30.02-54.48-80.17s21.36-80.17,54.48-80.17,53.86,30.33,53.86,80.17-21.36,80.17-53.86,80.17Zm0,31.57c60.98,0,109.89-49.53,109.89-111.74s-48.91-111.74-109.89-111.74-110.5,49.53-110.5,111.74,48.91,111.74,110.5,111.74ZM0,312.56h99.05l-18.88-33.43,12.38-61.91h40.55l42.1,42.1-17.64-97.81-17.95,24.76h-40.86l12.38-60.05h59.12l61.29,69.03-20.43-99.98H38.07l20.12,35.91-30.02,147.96L0,312.56Zm471.42,23.52l-74.6-137.12c20.12-9.29,37.45-24.14,37.45-49.22,0-34.05-28.17-54.48-87.6-54.48h-106.79l20.43,36.22v147.65l-18.88,33.43h89.77l-18.88-33.43V126.22h29.72c28.79,0,39.93,14.55,39.93,28.17,0,18.57-13.62,33.12-56.34,33.12h-7.74l153.53,148.58Z"></path></g></g></svg>