<svg xmlns="http://www.w3.org/2000/svg" viewBox="0 0 1320.3 318.2"><defs><style>      .cls-1 {        fill: #e2d4c4;      }    </style></defs><g><g id="Layer_1"><g><path class="cls-1" d="M1229.3,100.8l53.1,32v-63.8l-53.1,31.7h0ZM1161.6,2.8l16.6,33.7v162.9h142.1v-58.4l-44.9,16.9h-51.7V44.4h47.5l44.9,16.9V2.8h-154.5,0ZM963.6,2.8l16.6,33.7v162.9h45.5V44.4h51.1c14.6,0,21.3,6.7,21.3,18s-6.7,18.3-21.3,18.3h-46.6l17.7,26.4,39.6,59v33.4h73.3l-57.6-82.6c25.8-7.9,40.7-30.6,40.7-55.3s-22.8-58.7-61.5-58.7h-118.8,0ZM877.9,2.8l16.6,33.7v162.9h45.5V2.8h-62.1ZM708.6,101.1c0-29.2,19.7-56.2,55-56.2s55,27,55,56.2-19.7,56.2-55,56.2-55-27-55-56.2ZM484.2,64.6l44.9-16.8h14v151.7h45.5V47.7h14l44.9,16.9V2.8h-163.5v61.8h0ZM300.8,101.1c0,53.4,39.3,98.3,105.3,98.3h49.1v-61.8l-46.3,16.9c-45.2,0-62.1-24.1-62.1-53.4s16.9-53.4,62.1-53.4l46.3,16.8V2.8h-49.1c-66,0-105.3,44.9-105.3,98.3ZM208.9,2.8l16.6,33.7v162.9h45.5V2.8h-62.1,0ZM0,2.8l98.3,199.4L196.6,2.8h-67.4v33.7l-30.9,64.9-30.9-64.9V2.8H0ZM763.6,202.2c61.8,0,101.1-47.7,101.1-101.1S825.4,0,763.6,0s-101.1,47.7-101.1,101.1,39.3,101.1,101.1,101.1h0Z"></path><g><polygon class="cls-1" points="859.3 224.8 859.3 246.4 881.8 224.8 859.3 224.8"></polygon><polygon class="cls-1" points="984.9 303.3 984.9 250.9 969.6 250.9 969.6 317.3 1016.6 317.3 1016.6 303.3 984.9 303.3"></polygon><path class="cls-1" d="M894,317.3h17l3.1-6.8h27.3l3.1,6.8h17l-33.8-70.2-33.8,70.2h0ZM920.2,297.1l7.6-16.5,7.6,16.5h-15.2Z"></path><polygon class="cls-1" points="851.5 290.9 880.2 290.9 880.2 277.1 851.5 277.1 851.5 264.9 885.5 264.9 885.5 250.9 836.1 250.9 836.1 317.3 886 317.3 886 303.3 851.5 303.3 851.5 290.9"></polygon><path class="cls-1" d="M824.5,271.7c0-10.9-8.1-20.8-21.7-20.8h-33.6v66.4h15.4v-34.4l22.4,34.4h18.8l-18-25.4c10.6-2.1,16.8-10.8,16.8-20.2h0ZM800.7,279.1h-16.1v-14.1h16.1c5.7,0,8.3,2.7,8.3,7s-2.7,7.1-8.3,7.1h0Z"></path><polygon class="cls-1" points="698.3 266.1 720.1 266.1 720.1 317.3 735.5 317.3 735.5 266.1 757.3 266.1 757.3 250.9 698.3 250.9 698.3 266.1"></polygon><polygon class="cls-1" points="671 285.8 628.3 249.9 628.3 317.3 643.6 317.3 643.6 283.2 686.3 318.2 686.3 250.9 671 250.9 671 285.8"></polygon><path class="cls-1" d="M583.9,249.9c-20.9,0-34.2,16.1-34.2,34.2s13.3,34.1,34.2,34.1,34.2-16.1,34.2-34.1-13.3-34.1-34.2-34.1h0ZM583.9,303.1c-12,0-18.6-9.1-18.6-19s6.6-19,18.6-19,18.6,9.1,18.6,19-6.6,19-18.6,19Z"></path><polygon class="cls-1" points="502.8 288 483.8 249.9 458.1 317.3 474.7 317.3 486.4 286.3 502.8 318.2 519.2 286.4 530.9 317.3 547.5 317.3 521.8 249.9 502.8 288"></polygon><polygon class="cls-1" points="386 291.3 414.3 291.3 414.3 277.7 386 277.7 386 265.7 419.6 265.7 419.6 251.9 370.9 251.9 370.9 317.3 420.1 317.3 420.1 303.5 386 303.5 386 291.3"></polygon><path class="cls-1" d="M330.1,251.9h-26.4v65.4h26.4c20,0,32.7-15.5,32.7-32.7s-12.7-32.7-32.7-32.7h0ZM330.6,303.5h-11.8v-37.8h11.3c11.5,0,17.8,8.6,17.8,18.9s-6.1,18.6-17.2,18.9h0Z"></path></g></g></g></g></svg>