<svg xmlns="http://www.w3.org/2000/svg" id="Layer_2" data-name="Layer 2" viewBox="0 0 1030.46 437.79"><defs><style>      .cls-1 {        fill: #fff;        stroke-width: 0px;      }    </style></defs><g id="Layer_1-2" data-name="Layer 1"><g><path class="cls-1" d="m993.16,238.14l-.91-1.12-.8-.74,37.89,4.2v-64.85c0-51.5-22.37-86.34-61.38-95.57l-24.57-5.81.07,24.67c-9.36-9.19-21.01-15.62-34.73-18.86l-24.57-5.81.07,23.24c-12.99-12.85-30.3-19.88-51.02-19.88-26.3,0-48.49,13.43-62.77,35.53v-22.34h-292.42v26.67c-13.5-16.62-34.02-26.67-58.24-26.67h-159.24v23.49c-1.11-1.98-2.28-3.9-3.51-5.73-13.49-19.96-34.54-30.95-59.26-30.95-21.29,0-40.24,8.21-54.55,23.33v-27.57l-26.34,8.99c-12.18,4.15-22.73,10.98-31.42,20.02v-29.01l-26.34,8.99C22.09,94.98,0,132.13,0,181.72c0,41.95,10.36,71.3,35.99,98.76L0,288.48v58.58c0,46.38,23.07,78.56,61.71,86.1l23.73,4.63v-20.73c9.3,8,20.75,13.51,34.04,16.1l23.73,4.63v-19.63c12.48,10.8,28.71,16.77,47.75,16.77,22.38,0,44.16-10.75,59.76-29.49,7.19-8.64,12.83-18.64,16.8-29.51,0,0,219.18-59.5,492.13-1.42,3.71,11.45,8.98,21.59,15.78,30.11,15.07,18.9,37.2,29.3,62.29,29.3,17.12,0,33.74-6.77,46.62-18.78v22.05l24-5.04c13.51-2.84,25.46-8.96,35.22-17.94v22.97l24-5.04c18.65-3.91,34.35-14.08,45.39-29.39,11.61-16.1,17.5-36.89,17.5-61.79,0-43.61-8.72-67.63-37.3-102.83ZM65.52,413.61c-34.2-6.67-45.6-36.21-45.6-66.55v-42.6l45.6-10.14v119.3Zm0-132.49c-32.01-27.39-45.6-53.76-45.6-99.4,0-37.31,14.39-69.87,45.6-80.51v179.92Zm57.77,132.49c-34.2-6.67-45.6-36.21-45.6-66.55v-42.6l45.6-10.14v119.3Zm0-132.49c-32.01-27.39-45.6-53.76-45.6-99.4,0-37.31,14.39-69.87,45.6-80.51v179.92Zm131.1-68.97l-43.04,6.09v-41.59c0-21.3-2.27-33.47-14.73-33.47-5.66,0-15.86,4.06-15.86,34.49,0,22.32,5.66,36.52,23.79,53.76l18.12,18.26c22.65,22.32,31.72,46.66,31.72,87.23,0,44.63-29.45,78.1-63.43,78.1-40.78,0-55.5-33.47-55.5-67.96v-42.6l41.91-10.14v44.63c0,19.27,5.66,30.43,16.99,30.43s16.99-9.13,16.99-24.34c0-18.26-3.4-32.46-19.26-48.69l-14.73-15.21c-28.32-27.39-41.91-53.76-41.91-99.4s21.52-84.19,62.3-84.19c38.51,0,56.63,33.47,56.63,77.09v37.53Zm67.96,132.88l-41.91,8.11V110.72h41.91v234.31Zm147.25-84.19v69.99l-41.91,3.04v-68.97c0-15.22-5.66-19.27-19.26-19.27h-11.33v90.28l-41.91,5.07V110.72h64.56c32.85,0,55.5,24.34,55.5,57.82,0,27.39-10.19,40.57-24.92,48.69,13.59,9.13,19.26,23.33,19.26,43.62Zm135.92,73.03c-36.25-3.04-71.36-5.07-107.61-4.06V110.72h106.47v47.67c-22.65,0-43.04,0-64.56-1.01v36.52h52.1c0,16.23,0,31.44,1.13,47.67-18.12-1.01-35.11-1.01-53.24-2.03v43.62c22.65,1.01,43.04,1.01,65.7,3.04v47.67Zm144.99,19.27c-14.73-2.03-28.32-5.07-43.04-8.11l-36.25-111.58v106.51c-14.73-2.03-27.18-3.04-43.04-4.06V110.72h43.04l36.25,127.81v-127.81h43.04v242.43Zm87.22,60.86c-38.51,0-64.56-30.43-64.56-83.18v-42.6l41.91,7.1v36.52c0,26.37,5.66,36.52,19.26,36.52,12.46,0,14.73-12.17,14.73-25.36,0-14.2-2.27-27.39-15.86-44.63l-28.32-36.52c-21.52-26.37-31.72-52.75-31.72-85.2,0-45.65,24.92-79.12,60.03-79.12,44.18,0,57.77,40.57,57.77,78.1v42.6l-41.91-5.07v-35.5c0-19.27-4.53-34.49-16.99-34.49-5.66,0-14.73,2.03-14.73,33.47,0,17.24,7.93,31.44,21.52,48.69l20.39,25.36c27.18,33.47,32.85,53.76,32.85,90.28,0,50.72-28.32,73.03-54.37,73.03Zm112.46-238.37v42.6l-45.73-5.07-.33-113.72c35.73,8.45,46.06,43.47,46.06,76.19Zm-45.93,237.02v-175.04l14.22,13.09c27.18,33.47,32.85,53.76,32.85,90.28,0,43.61-20.94,66.2-47.06,71.68Zm105.16-237.02v42.6l-45.73-5.07-.33-113.72c35.72,8.45,46.05,43.47,46.05,76.19Zm-45.93,237.02v-175.04l14.21,13.09c27.18,33.47,32.85,53.76,32.85,90.28,0,43.61-20.94,66.2-47.06,71.68Z"></path><path class="cls-1" d="m414.09,156.36h-16.99v44.63h16.99c12.46,0,19.26-9.13,19.26-23.33,0-13.19-5.66-21.3-19.26-21.3Z"></path></g><path class="cls-1" d="m387.96,1.49l16.84,63.91h22.14l9.58-34.51,9.58,34.51h22.14L485.08,1.49h-20.93l-8.28,37.96-8.93-37.96h-20.84l-8.93,37.96-8.28-37.96h-20.93Zm319.28,63.91h21.12v-18.51l4.84-5.4,13.77,23.91h22.79l-22.33-39.72,21.77-24.19h-23.07l-17.77,19.72V1.49h-21.12v63.91Zm-42.51-37.68v-12.09h5.58c4,0,6.42,2.42,6.42,6.14s-2.42,5.95-6.42,5.95h-5.58Zm-20.65,37.68h20.65v-24.37h1.3l13.21,24.37h21.3l-15.35-26.23c6.88-2.98,11.72-9.21,11.72-17.86,0-12.28-9.68-19.82-21.21-19.82h-31.63v63.91Zm-42.79-14.7c-7.81,0-12.37-6.42-12.37-17.21s4.65-17.21,12.37-17.21,12.47,6.33,12.47,17.21-4.56,17.21-12.47,17.21Zm0,16.19c20.47,0,34.42-13.77,34.42-33.4S621.83,0,601.27,0s-34.42,13.77-34.42,33.49,14.05,33.4,34.42,33.4Zm-75.35-1.49h21.12v-25.96l20.28-37.96h-19.82l-10.98,20.84-10.79-20.84h-20.47l20.65,38.7v25.21Zm-191.83,0h48.56v-14.7h-27.44v-10.7h23.44v-13.77h-23.44v-9.95h27.44V1.49h-48.56v63.91Zm-71.07,0h20.84v-33.4l17.02,33.4h21.77V1.49h-20.84v33.68L284.7,1.49h-21.68v63.91Z"></path></g></svg>