<svg xmlns="http://www.w3.org/2000/svg" viewBox="0 0 1016.8 323.6"><defs><style>      .cls-1 {        fill: #fff;      }    </style></defs><g><g id="Layer_1"><g id="Layer_1-2" data-name="Layer_1"><g><g><path class="cls-1" d="M154.8,0c-24.4,0-46.9,8.8-63.4,24.8-16.3,15.8-25.3,37.2-25.3,60.2,0,39.7,32.5,68.5,77.2,68.5s46.9-8.9,63.4-25.1c16.2-15.9,25.1-37.4,25.1-60.4,0-39.4-32.4-68-77-68ZM145.5,111.2c-17.8,0-31.2-13.3-31.2-31s17.4-37.9,38.1-37.9,31.2,13.3,31.2,31-17.8,37.9-38.1,37.9Z"></path><polygon class="cls-1" points="488.7 44.5 497.4 3.4 248.7 3.4 240 44.5 276.4 44.5 254 150.1 300.4 150.1 322.9 44.5 406 44.5 383.6 150.1 430.1 150.1 452.5 44.5 488.7 44.5"></polygon><path class="cls-1" d="M538.9,3.4l-88.2,146.6h48.2l9.5-17h49.9l2.4,17h46.9L581.5,3.4h-42.6ZM524.6,104.3l23.6-42.3,6.1,42.3h-29.8.1Z"></path><path class="cls-1" d="M874.6,3.4l-88.2,146.6h48.2l9.5-17h49.9l2.4,17h46.9L917.2,3.4h-42.6ZM860.3,104.3l23.6-42.3,6.1,42.3h-29.8.1Z"></path><polygon class="cls-1" points="840.7 3.4 762.8 150.1 719.6 150.1 710.9 75.3 672.4 150.1 629 150.1 613.1 3.4 659.6 3.4 664.9 82.5 705 3.4 747.6 3.4 754.6 82.2 793.4 3.4 840.7 3.4"></polygon></g><path class="cls-1" d="M802.6,323.6c-46.2,0-79.8-30.2-79.8-71.7s9.5-45.7,26.7-62.2,40.3-25.6,65.1-25.6,54.7,12.3,68,32.9l.8,1.2-39.7,29.8-.9-1.2c-8.5-10.9-17.6-15.7-29.5-15.7-21.4,0-37,15.6-37,37s10.4,28.7,30.2,28.7,22-5.6,27.4-14.1l-30-27h89.3l-.2,1.7c-3.8,27.6-15.1,50.2-32.6,65.4-15.6,13.5-36.1,20.9-57.8,20.9h0ZM168,323.1c-40.3,0-72-8-109.2-27.6l-5.4-2.8h47.3l.4.4c7.4,6.9,17.2,11.9,28.8,14.9-23.2-10.1-37.4-31.7-37.4-59.7s3.4-27.5,10.4-39.3c-1.4,1.4-2.8,3-4.1,4.6l-.5.7-77-9.5,92.6-10.3c2.8-3.1,6.1-6.2,10.1-9.7h-59.7l9.4-2.9c40.8-12.7,70-17.9,100.9-17.9s67,13.7,79.4,41.8l.5,1.1-42.9,32-.8-1.7c-7-15-14.9-25-30.8-25s-34.2,14.4-34.2,34.2,11.3,28.9,27.4,28.9,28.6-14.3,32.1-22.8l.4-.9h53l-.3,1.7c-6.9,41.7-43.3,69.7-90.6,69.7h.2ZM884.5,319.7l29.3-137.6-20.5-14.1h123.6l-8.6,44.3h-49.1l-1.8,10h38.3l-8.7,40.2h-38.5l-3.2,12.9h50.4l-10,44.3h-101.2ZM661.1,319.7l-20-53h-5.8l-12,53h-52.2l28.2-135-24.5-16.7h89.6c19.6,0,35.1,5.8,44.7,16.6,8.3,9.4,11.8,22.1,10,36.8-1.5,16.3-12.5,30.2-28.9,36.6l24.2,61.7h-53.5.2ZM654.1,229.1c4.8,0,12.8-1.2,12.8-9.2s-3.4-7.6-8.9-7.6h-12.2l-3.1,16.8h11.5,0ZM514.8,319.7l-2.8-17.4h-45.4l-9.3,17.4h-55.3l84.1-139.1-18.8-12.6h72.7l26.8,151.7h-52ZM507.6,267.5l-4.4-29.8-17.8,29.8h22.2ZM345.7,319.7l11.7-53h-40.6l-12,53h-52.2l29.5-140.1-18-11.6h73l-10.4,51.7h40.8l7.4-38.9-17.5-12.8h72.5l-32.4,151.7h-52,.2ZM16.3,268.1l72-8.6v1.5c.8,7.1,2.2,12.4,4.8,17.8l1.3,2.6-78.1-13.3h0ZM0,234.2l93.2-7.8-1.2,2.4c-2.1,4.2-4,12-4.2,17.4v1.7c-.1.1-87.8-13.7-87.8-13.7Z"></path></g></g></g></g></svg>