<svg xmlns="http://www.w3.org/2000/svg" id="Layer_2" data-name="Layer 2" viewBox="0 0 1539.27 340.82"><defs><style>      .cls-1 {        fill: #fff;        stroke-width: 0px;      }    </style></defs><g id="Layer_1-2" data-name="Layer 1"><g><path class="cls-1" d="m1431.96,340.82c-34.37,0-66.08-8.78-87-24.08l-4.03-2.95v-76.66l16.48,15.09c29.54,27.06,51.09,32.35,78.33,32.35,11.66,0,38.79-1.25,38.79-12.83,0-10.39-16.61-14.66-43.97-20.46-18.73-3.97-39.96-8.48-56.7-18.22-20.59-11.98-31.03-30.09-31.03-53.84s10.23-42.7,29.6-55.94c18.7-12.79,44.69-19.27,77.25-19.27,27.8,0,55.25,7.24,73.43,19.35l4.38,2.92v73.52l-15.94-12.64c-24.42-19.36-42.69-26.9-65.17-26.9-38.79,0-38.79,10.69-38.79,14.71,0,8.87,16.53,13.04,41.74,18.38,19.12,4.05,40.79,8.64,58.05,18.83,21.18,12.5,31.91,31.43,31.91,56.25,0,21.69-10.95,40.73-30.83,53.6-18.98,12.29-45.42,18.78-76.48,18.78Zm-87.03-29.06l2.39,1.75c20.25,14.82,51.1,23.31,84.64,23.31,30.28,0,55.98-6.27,74.3-18.14,18.71-12.11,29.01-29.96,29.01-50.24,0-23.31-10.08-41.08-29.95-52.81-16.7-9.86-38.03-14.38-56.85-18.36-27.94-5.92-44.91-10.38-44.91-22.29,0-8.03,4.44-18.71,42.79-18.71,23.48,0,42.45,7.79,67.66,27.77l9.46,7.5v-63.1l-2.6-1.73c-17.55-11.7-44.17-18.68-71.21-18.68-31.74,0-56.97,6.25-74.99,18.57-18.22,12.46-27.85,30.67-27.85,52.64s9.77,39.17,29.04,50.38c16.18,9.42,37.08,13.85,55.52,17.76,29.33,6.22,47.14,10.97,47.14,24.38s-23.27,16.83-42.79,16.83c-28.23,0-50.54-5.47-81.03-33.4l-9.77-8.95v65.54Zm-1253.91,29.06c-34.37,0-66.08-8.78-87-24.08l-4.03-2.95v-76.66l16.48,15.09c29.54,27.06,51.09,32.35,78.33,32.35,11.66,0,38.79-1.25,38.79-12.83,0-10.39-16.61-14.66-43.97-20.46-18.73-3.97-39.96-8.48-56.7-18.22-20.59-11.98-31.03-30.1-31.03-53.84s10.23-42.7,29.6-55.94c18.7-12.79,44.69-19.27,77.24-19.27,27.8,0,55.25,7.24,73.43,19.35l4.38,2.92v73.52l-15.94-12.64c-24.42-19.36-42.69-26.9-65.17-26.9-38.79,0-38.79,10.69-38.79,14.71,0,8.87,16.53,13.04,41.74,18.38,19.12,4.05,40.79,8.64,58.05,18.83,21.18,12.5,31.91,31.43,31.91,56.25,0,21.69-10.95,40.73-30.84,53.6-18.98,12.29-45.42,18.78-76.48,18.78Zm-87.03-29.06l2.39,1.75c20.25,14.82,51.1,23.31,84.64,23.31,30.28,0,55.98-6.27,74.3-18.14,18.71-12.11,29.01-29.96,29.01-50.24,0-23.31-10.08-41.08-29.95-52.81-16.7-9.86-38.03-14.38-56.85-18.36-27.94-5.92-44.91-10.38-44.91-22.29,0-8.03,4.44-18.71,42.79-18.71,23.48,0,42.45,7.79,67.66,27.77l9.46,7.5v-63.1l-2.6-1.73c-17.55-11.7-44.17-18.68-71.21-18.68-31.74,0-56.97,6.25-74.99,18.57-18.22,12.46-27.85,30.67-27.85,52.64s9.77,39.17,29.04,50.38c16.19,9.42,37.08,13.85,55.52,17.76,29.33,6.22,47.14,10.97,47.14,24.38s-23.27,16.83-42.79,16.83c-28.23,0-50.53-5.47-81.03-33.4l-9.77-8.95v65.54Zm311.02-17.67c-30.61,0-58.86-9.07-79.53-25.54-21.87-17.42-33.92-42.1-33.92-69.5s12.05-52.08,33.92-69.5c20.67-16.47,48.92-25.54,79.53-25.54,33.41,0,52.26,4.31,67.22,15.38l3.98,2.95v71.18l-16.69-16.22c-14.07-13.67-24.02-18.22-55.22-18.22-24.02,0-49.88,12.51-49.88,39.97s25.86,39.97,49.88,39.97c31.2,0,41.15-4.55,55.22-18.22l16.69-16.22v71.18l-3.98,2.95c-14.96,11.07-33.81,15.38-67.22,15.38Zm0-186.08c-29.71,0-57.07,8.76-77.04,24.67-20.9,16.65-32.41,40.22-32.41,66.37s11.51,49.73,32.41,66.37c19.97,15.91,47.33,24.67,77.04,24.67,32.46,0,50.64-4.09,64.84-14.6l2.36-1.75v-59.7l-9.9,9.62c-14.94,14.52-25.42,19.36-58.01,19.36-25.95,0-53.88-13.76-53.88-43.97,0-13.9,6.02-25.46,17.42-33.44,9.71-6.79,22.66-10.53,36.46-10.53,32.59,0,43.07,4.83,58.01,19.36l9.9,9.62v-59.7l-2.36-1.75c-14.2-10.51-32.38-14.6-64.84-14.6Zm1010.75,183.25h-247.14v-9.83c0-15.83-1.06-17.57-4.22-22.71l-15.26-24.57h-20.1v14.24c0,12.13.81,15.06,7.84,28.48l7.55,14.4h-89.17l7.55-14.4c6.83-13.01,7.61-15.94,7.61-28.48v-99.13c0-12.54-.78-15.46-7.61-28.48l-7.55-14.4h102.65c50.62,0,82.06,24.48,82.06,63.88,0,22.31-10.52,40.59-29.67,51.71l39.98,61.1,2.78-5.86c6.35-13.35,7.07-16.31,7.07-28.82v-99.13c0-12.51-.73-15.48-7.07-28.82l-6.68-14.05h167.01v72.22l-15.06-9.45c-10.08-6.32-22.03-10.53-47.64-10.53h-29.35v12.67h80.25v52.24h-80.25v15.5h31.71c25.61,0,37.57-4.21,47.64-10.53l15.06-9.45v72.22Zm-162.73-4h158.73v-60.99l-8.93,5.61c-10.66,6.69-23.2,11.15-49.77,11.15h-35.71v-23.5h80.25v-44.24h-80.25v-20.67h33.35c26.57,0,39.11,4.46,49.77,11.15l8.93,5.61v-60.99h-156.68l3.96,8.34c6.55,13.79,7.46,17.5,7.46,30.54v99.13c0,13.04-.91,16.75-7.46,30.54l-3.83,8.06.18.28Zm-80.41,0h75.63l-43.65-66.72,1.92-1.03c19-10.26,29.47-27.75,29.47-49.25,0-36.94-29.91-59.88-78.06-59.88h-96.03l4.48,8.54c7.08,13.51,8.06,17.19,8.06,30.33v99.13c0,13.14-.98,16.83-8.06,30.33l-4.48,8.54h75.94l-4.48-8.54c-7.29-13.9-8.3-17.59-8.3-30.33v-18.24h26.33l16.44,26.47c3.66,5.97,4.81,8.62,4.81,24.81v5.83Zm-170.66,4h-91.77l7.56-14.4c6.83-13.01,7.61-15.94,7.61-28.48v-91.2c-15.83,1.48-32.16,6.53-47.37,14.66l-14.47,7.74v-73.21h184.89v73.21l-14.47-7.74c-15.21-8.13-31.54-13.18-47.37-14.66v91.2c0,12.14.81,15.06,7.84,28.48l7.55,14.4Zm-85.15-4h78.54l-4.48-8.54c-7.29-13.9-8.3-17.59-8.3-30.33v-95.52l2.15.16c17.05,1.25,34.73,6.54,51.11,15.3l8.58,4.59v-62.54h-176.89v62.54l8.58-4.59c16.38-8.76,34.06-14.06,51.11-15.3l2.15-.16v95.52c0,13.14-.98,16.83-8.07,30.33l-4.48,8.54Zm-159.2,4h-91.77l7.55-14.4c6.83-13.01,7.61-15.94,7.61-28.48v-99.13c0-12.54-.78-15.47-7.61-28.48l-7.55-14.4h105.25c24.56,0,45.06,5.9,59.27,17.06,14.91,11.71,22.79,28.8,22.79,49.42s-7.88,37.72-22.79,49.42c-14.21,11.16-34.71,17.06-59.27,17.06h-28.88v9.05c0,12.13.81,15.06,7.84,28.48l7.55,14.4Zm-85.15-4h78.54l-4.48-8.54c-7.29-13.9-8.3-17.59-8.3-30.33v-13.05h32.88c23.66,0,43.3-5.6,56.8-16.2,13.91-10.92,21.26-26.92,21.26-46.28s-7.35-35.36-21.26-46.28c-13.5-10.6-33.14-16.2-56.8-16.2h-98.63l4.48,8.54c7.08,13.51,8.06,17.19,8.06,30.33v99.13c0,13.14-.98,16.83-8.06,30.33l-4.48,8.54Zm-15.6,4h-169.37l6.68-14.06c6.35-13.35,7.07-16.31,7.07-28.82v-99.13c0-12.51-.73-15.48-7.07-28.82l-6.68-14.06h167.01v72.22l-15.06-9.45c-10.08-6.32-22.04-10.53-47.65-10.53h-29.35v12.67h80.25v52.24h-80.25v15.5h31.71c25.61,0,37.57-4.21,47.64-10.53l15.06-9.45v72.22Zm-163.04-4h159.04v-60.99l-8.93,5.61c-10.66,6.69-23.2,11.15-49.77,11.15h-35.71v-23.5h80.25v-44.24h-80.25v-20.67h33.35c26.56,0,39.11,4.46,49.77,11.15l8.93,5.61v-60.99h-156.68l3.96,8.34c6.55,13.78,7.46,17.5,7.46,30.54v99.13c0,13.04-.91,16.75-7.46,30.54l-3.96,8.34Zm278.46-97.58h-34.06v-33.18h34.06c15.04,0,23.67,6.05,23.67,16.59s-8.63,16.59-23.67,16.59Zm-30.06-4h30.06c8.97,0,19.67-2.18,19.67-12.59s-10.7-12.59-19.67-12.59h-30.06v25.18Zm422.09,1.17h-39.25v-30.35h39.25c10.19,0,21.08,3.99,21.08,15.17s-10.89,15.17-21.08,15.17Zm-35.25-4h35.25c5.13,0,17.08-1.09,17.08-11.17s-11.94-11.17-17.08-11.17h-35.25v22.35Z"></path><path class="cls-1" d="m987.3,30.93c0-12.34,10.37-18.08,19.62-18.08s19.62,5.74,19.62,18.08-10.37,18.08-19.62,18.08-19.62-5.74-19.62-18.08Zm-15.68,0c0,18.59,15.85,30.93,35.3,30.93s35.3-12.34,35.3-30.93-15.85-30.93-35.3-30.93-35.3,12.34-35.3,30.93Zm-73.25-18.08V.86h63.4v11.99h-24.16v47.98h-15.08V12.85h-24.16Zm-77.97,47.98V.86h16.36l30.93,37.78V.86h14.91v59.97h-14.99l-32.3-39.67v39.67h-14.91Zm-72.23-29.9c0-12.34,10.37-18.08,19.62-18.08s19.62,5.74,19.62,18.08-10.37,18.08-19.62,18.08-19.62-5.74-19.62-18.08Zm-15.68,0c0,18.59,15.85,30.93,35.3,30.93s35.3-12.34,35.3-30.93-15.85-30.93-35.3-30.93-35.3,12.34-35.3,30.93Zm-59.37-2.31v-15.25h19.96c5.91,0,9.77,3,9.77,7.63s-3.86,7.63-9.77,7.63h-19.96Zm-87.13,2.31c0-12.34,10.37-18.08,19.62-18.08s19.62,5.74,19.62,18.08-10.37,18.08-19.62,18.08-19.62-5.74-19.62-18.08Zm-15.68,0c0,18.59,15.85,30.93,35.3,30.93s35.3-12.34,35.3-30.93-15.85-30.93-35.3-30.93-35.3,12.34-35.3,30.93Zm-73.25-18.08V.86h63.4v11.99h-24.16v47.98h-15.08V12.85h-24.16Zm160.99,47.98h15.08v-20.73h16.36l12.85,20.73h18.16l-15.08-23.05c7.88-3,12.42-9.08,12.42-17.31,0-12.17-9.85-19.62-26.22-19.62h-33.59v59.97Z"></path><path class="cls-1" d="m836.46,281.42h59.24c-7.55-14.4-8.97-18.88-8.97-33.04v-101.49c20.06,0,41.54,5.43,61.84,16.29v-46.97h-165.22v46.97c20.3-10.86,41.78-16.29,61.84-16.29v101.49c0,14.16-1.18,18.65-8.73,33.04Zm-194.08-85.91v-44.85h39.89c18.41,0,29.5,8.5,29.5,22.42s-11.09,22.42-29.5,22.42h-39.89Zm-50.27,85.91h59.24c-7.55-14.4-8.97-18.88-8.97-33.04v-18.88h38.71c45.55,0,72.22-21.01,72.22-56.65s-26.67-56.65-72.22-56.65h-88.98c7.55,14.4,8.73,18.88,8.73,33.04v99.13c0,14.16-1.18,18.65-8.73,33.04Zm-179.06,0h143.98v-44.61c-12.04,7.55-25.96,12.04-52.87,12.04h-41.54v-35.17h80.25v-32.57h-80.25v-32.34h39.18c26.91,0,40.83,4.48,52.87,12.04v-44.61h-141.62c6.84,14.4,8.02,18.88,8.02,33.04v99.13c0,14.16-1.18,18.65-8.02,33.04Zm-98.03,2.83c33.99,0,49.57-4.72,61.37-13.45v-42.96c-16.76,16.29-29.74,21.01-62.08,21.01-28.8,0-59.72-15.81-59.72-49.8s30.92-49.8,59.72-49.8c32.34,0,45.32,4.72,62.08,21.01v-42.96c-11.8-8.73-27.38-13.45-61.37-13.45-57.59,0-103.62,33.99-103.62,85.21s46.03,85.21,103.62,85.21Zm-223.99,46.73c59.72,0,97.48-25.02,97.48-62.55,0-82.37-131.7-51.45-131.7-93.47,0-16.52,15.11-24.55,48.62-24.55,25.02,0,45.08,8.26,71.28,29.03v-47.91c-15.58-10.39-40.83-17.7-67.98-17.7-61.84,0-97.01,25.02-97.01,65.38,0,79.54,131.7,47.91,131.7,92.52,0,14.4-15.34,22.66-48.62,22.66-30.21,0-54.05-6.61-84.97-34.93v49.33c19.35,14.16,49.09,22.19,81.19,22.19Zm1014.9-113.06c21.71-8.26,34.22-25.02,34.22-47.68,0-33.52-27.14-54.05-72.23-54.05h-86.39c7.55,14.4,8.73,18.88,8.73,33.04v99.13c0,14.16-1.18,18.65-8.73,33.04h56.65c-7.55-14.4-8.97-18.88-8.97-33.04v-24.07h35.4l18.17,29.27c4.48,7.32,5.66,11.09,5.66,27.85h59.01l-41.54-63.49Zm-31.63-25.26h-45.08v-42.01h45.08c16.29,0,26.91,8.26,26.91,21.01s-10.62,21.01-26.91,21.01Zm97.66,88.75h143.98v-44.61c-12.04,7.55-25.96,12.04-52.87,12.04h-41.54v-35.17h80.25v-32.57h-80.25v-32.34h39.18c26.91,0,40.83,4.48,52.87,12.04v-44.61h-141.62c6.84,14.4,8.02,18.88,8.02,33.04v99.13c0,14.16-1.18,18.65-8.02,33.04Zm260.01,49.57c59.72,0,97.48-25.02,97.48-62.55,0-82.37-131.7-51.45-131.7-93.47,0-16.52,15.11-24.55,48.62-24.55,25.02,0,45.08,8.26,71.28,29.03v-47.91c-15.58-10.39-40.83-17.7-67.98-17.7-61.84,0-97.01,25.02-97.01,65.38,0,79.54,131.7,47.91,131.7,92.52,0,14.4-15.34,22.66-48.62,22.66-30.21,0-54.05-6.61-84.97-34.93v49.33c19.35,14.16,49.09,22.19,81.19,22.19Z"></path></g></g></svg>